<svg xmlns="http://www.w3.org/2000/svg" width="900" height="670" viewBox="0 0 900 670" role="img" aria-labelledby="title description">
<title id="title">Keep the characters your text needs</title>
<desc id="description">Inter subset for ALTO Font 0123456789. The sample grid shows A-Z and 0-9; pale crossed cells are no longer mapped in the subset. Both file sizes use WOFF.</desc>
<rect width="900" height="670" fill="#fafbfe"/>
<g font-family="Arial, Helvetica, sans-serif">
<text x="32" y="45" font-size="28" fill="#243047">Keep the characters your text needs</text>
<text x="32" y="84" font-size="20" fill="#5d6878">Text: ALTO Font 0123456789</text>
<text x="32" y="132" font-size="24" fill="#243047">Source</text>
<rect x="32" y="157" width="56" height="54" rx="4" fill="#e9eefb"/>
<path d="M47.812 196.000 L56.266 172.719 L59.703 172.719 L68.266 196.000 L65.141 196.000 L60.203 182.188 Q59.750 180.906 59.148 178.992 Q58.547 177.078 57.688 174.109 L58.250 174.109 Q57.406 177.109 56.789 179.055 Q56.172 181.000 55.766 182.188 L50.969 196.000 L47.812 196.000 Z M52.062 189.500 L52.062 186.906 L64.016 186.906 L64.016 189.500 L52.062 189.500 Z" fill="#2254d7"/>
<rect x="96" y="157" width="56" height="54" rx="4" fill="#e9eefb"/>
<path d="M113.812 196.000 L113.812 172.719 L122.062 172.719 Q124.500 172.719 126.086 173.555 Q127.672 174.391 128.445 175.789 Q129.219 177.188 129.219 178.891 Q129.219 180.391 128.688 181.367 Q128.156 182.344 127.289 182.922 Q126.422 183.500 125.406 183.781 L125.406 184.000 Q126.500 184.062 127.586 184.750 Q128.672 185.438 129.398 186.703 Q130.125 187.969 130.125 189.797 Q130.125 191.547 129.320 192.953 Q128.516 194.359 126.797 195.180 Q125.078 196.000 122.328 196.000 L113.812 196.000 Z M116.781 193.375 L122.250 193.375 Q124.969 193.375 126.117 192.328 Q127.266 191.281 127.266 189.766 Q127.266 188.594 126.672 187.609 Q126.078 186.625 124.992 186.031 Q123.906 185.438 122.406 185.438 L116.781 185.438 L116.781 193.375 Z M116.781 182.938 L121.906 182.938 Q123.156 182.938 124.172 182.445 Q125.188 181.953 125.781 181.055 Q126.375 180.156 126.375 178.953 Q126.375 177.438 125.320 176.391 Q124.266 175.344 122.000 175.344 L116.781 175.344 L116.781 182.938 Z" fill="#2254d7"/>
<rect x="160" y="157" width="56" height="54" rx="4" fill="#e9eefb"/>
<path d="M187.234 196.312 Q184.250 196.312 181.914 194.867 Q179.578 193.422 178.242 190.742 Q176.906 188.062 176.906 184.375 Q176.906 180.672 178.242 177.992 Q179.578 175.312 181.914 173.859 Q184.250 172.406 187.234 172.406 Q189.000 172.406 190.570 172.922 Q192.141 173.438 193.391 174.430 Q194.641 175.422 195.477 176.836 Q196.312 178.250 196.625 180.047 L193.656 180.047 Q193.406 178.844 192.805 177.938 Q192.203 177.031 191.336 176.406 Q190.469 175.781 189.422 175.469 Q188.375 175.156 187.234 175.156 Q185.141 175.156 183.453 176.219 Q181.766 177.281 180.781 179.336 Q179.797 181.391 179.797 184.375 Q179.797 187.344 180.789 189.398 Q181.781 191.453 183.469 192.508 Q185.156 193.562 187.234 193.562 Q188.375 193.562 189.422 193.242 Q190.469 192.922 191.336 192.305 Q192.203 191.688 192.805 190.773 Q193.406 189.859 193.656 188.672 L196.625 188.672 Q196.328 190.453 195.492 191.859 Q194.656 193.266 193.406 194.266 Q192.156 195.266 190.586 195.789 Q189.016 196.312 187.234 196.312 Z" fill="#2254d7"/>
<rect x="224" y="157" width="56" height="54" rx="4" fill="#e9eefb"/>
<path d="M249.078 196.000 L243.453 196.000 L243.453 193.375 L248.891 193.375 Q251.734 193.375 253.602 192.289 Q255.469 191.203 256.391 189.172 Q257.312 187.141 257.312 184.312 Q257.312 181.516 256.398 179.508 Q255.484 177.500 253.680 176.422 Q251.875 175.344 249.172 175.344 L243.328 175.344 L243.328 172.719 L249.375 172.719 Q252.781 172.719 255.195 174.109 Q257.609 175.500 258.898 178.102 Q260.188 180.703 260.188 184.312 Q260.188 187.953 258.891 190.570 Q257.594 193.188 255.109 194.594 Q252.625 196.000 249.078 196.000 Z M244.781 172.719 L244.781 196.000 L241.812 196.000 L241.812 172.719 L244.781 172.719 Z" fill="#2254d7"/>
<rect x="288" y="157" width="56" height="54" rx="4" fill="#e9eefb"/>
<path d="M305.812 196.000 L305.812 172.719 L320.000 172.719 L320.000 175.344 L308.781 175.344 L308.781 182.938 L319.234 182.938 L319.234 185.562 L308.781 185.562 L308.781 193.375 L320.141 193.375 L320.141 196.000 L305.812 196.000 Z" fill="#2254d7"/>
<rect x="352" y="157" width="56" height="54" rx="4" fill="#e9eefb"/>
<path d="M369.812 196.000 L369.812 172.719 L383.891 172.719 L383.891 175.344 L372.781 175.344 L372.781 183.312 L382.828 183.312 L382.828 185.938 L372.781 185.938 L372.781 196.000 L369.812 196.000 Z" fill="#2254d7"/>
<rect x="32" y="220" width="56" height="54" rx="4" fill="#e9eefb"/>
<path d="M59.328 259.312 Q56.219 259.312 53.875 257.859 Q51.531 256.406 50.219 253.727 Q48.906 251.047 48.906 247.375 Q48.906 243.672 50.219 240.992 Q51.531 238.312 53.844 236.859 Q56.156 235.406 59.141 235.406 Q60.984 235.406 62.586 235.953 Q64.188 236.500 65.453 237.516 Q66.719 238.531 67.555 239.930 Q68.391 241.328 68.703 243.016 L65.641 243.016 Q65.281 241.891 64.688 241.000 Q64.094 240.109 63.273 239.469 Q62.453 238.828 61.422 238.492 Q60.391 238.156 59.156 238.156 Q57.109 238.156 55.438 239.211 Q53.766 240.266 52.781 242.320 Q51.797 244.375 51.797 247.375 Q51.797 250.344 52.789 252.391 Q53.781 254.438 55.484 255.500 Q57.188 256.562 59.328 256.562 Q61.297 256.562 62.797 255.727 Q64.297 254.891 65.133 253.352 Q65.969 251.812 65.969 249.719 L66.859 249.891 L59.938 249.891 L59.938 247.297 L68.875 247.297 L68.875 249.844 Q68.875 252.734 67.641 254.859 Q66.406 256.984 64.258 258.148 Q62.109 259.312 59.328 259.312 Z" fill="#2254d7"/>
<rect x="96" y="220" width="56" height="54" rx="4" fill="#e9eefb"/>
<path d="M113.812 259.000 L113.812 235.719 L116.781 235.719 L116.781 245.781 L129.000 245.781 L129.000 235.719 L131.969 235.719 L131.969 259.000 L129.000 259.000 L129.000 248.406 L116.781 248.406 L116.781 259.000 L113.812 259.000 Z" fill="#2254d7"/>
<rect x="160" y="220" width="56" height="54" rx="4" fill="#e9eefb"/>
<path d="M180.781 235.719 L180.781 259.000 L177.812 259.000 L177.812 235.719 L180.781 235.719 Z" fill="#2254d7"/>
<rect x="224" y="220" width="56" height="54" rx="4" fill="#e9eefb"/>
<path d="M247.516 259.312 Q244.438 259.312 242.500 257.500 Q240.562 255.688 240.562 252.344 L240.562 251.094 L243.531 251.094 L243.531 252.344 Q243.531 254.469 244.625 255.586 Q245.719 256.703 247.516 256.703 Q249.297 256.703 250.391 255.586 Q251.484 254.469 251.484 252.344 L251.484 235.719 L254.453 235.719 L254.453 252.344 Q254.453 255.688 252.523 257.500 Q250.594 259.312 247.516 259.312 Z" fill="#2254d7"/>
<rect x="288" y="220" width="56" height="54" rx="4" fill="#e9eefb"/>
<path d="M307.844 252.344 L307.844 249.172 Q308.641 248.078 309.430 247.078 Q310.219 246.078 311.047 245.125 Q311.875 244.172 312.750 243.234 L319.703 235.719 L323.594 235.719 L313.656 246.375 L313.500 246.359 L307.844 252.344 Z M305.812 259.000 L305.812 235.719 L308.781 235.719 L308.781 243.688 L308.734 248.703 L308.781 250.156 L308.781 259.000 L305.812 259.000 Z M320.094 259.000 L311.672 247.156 L313.516 244.844 L323.609 259.000 L320.094 259.000 Z" fill="#2254d7"/>
<rect x="352" y="220" width="56" height="54" rx="4" fill="#e9eefb"/>
<path d="M369.812 259.000 L369.812 235.719 L372.781 235.719 L372.781 256.375 L383.562 256.375 L383.562 259.000 L369.812 259.000 Z" fill="#2254d7"/>
<rect x="32" y="283" width="56" height="54" rx="4" fill="#e9eefb"/>
<path d="M49.812 322.000 L49.812 298.719 L54.031 298.719 L59.766 313.406 Q59.969 313.922 60.227 314.695 Q60.484 315.469 60.773 316.375 Q61.062 317.281 61.328 318.180 Q61.594 319.078 61.797 319.844 L61.141 319.844 Q61.359 319.125 61.625 318.242 Q61.891 317.359 62.180 316.445 Q62.469 315.531 62.734 314.734 Q63.000 313.938 63.203 313.406 L68.859 298.719 L73.094 298.719 L73.094 322.000 L70.172 322.000 L70.172 308.703 Q70.172 307.984 70.180 307.062 Q70.188 306.141 70.211 305.125 Q70.234 304.109 70.258 303.062 Q70.281 302.016 70.297 301.031 L70.547 301.031 Q70.219 302.109 69.852 303.227 Q69.484 304.344 69.133 305.383 Q68.781 306.422 68.469 307.281 Q68.156 308.141 67.938 308.703 L62.734 322.000 L60.156 322.000 L54.875 308.703 Q54.656 308.156 54.359 307.320 Q54.062 306.484 53.711 305.461 Q53.359 304.438 52.984 303.305 Q52.609 302.172 52.219 301.031 L52.500 301.031 Q52.531 301.906 52.555 302.922 Q52.578 303.938 52.594 304.977 Q52.609 306.016 52.625 306.977 Q52.641 307.938 52.641 308.703 L52.641 322.000 L49.812 322.000 Z" fill="#2254d7"/>
<rect x="96" y="283" width="56" height="54" rx="4" fill="#e9eefb"/>
<path d="M113.812 322.000 L113.812 298.719 L117.312 298.719 L126.781 313.609 Q127.156 314.188 127.688 315.094 Q128.219 316.000 128.836 317.141 Q129.453 318.281 130.047 319.578 L129.625 319.578 Q129.484 318.234 129.422 317.008 Q129.359 315.781 129.344 314.750 Q129.328 313.719 129.328 313.000 L129.328 298.719 L132.297 298.719 L132.297 322.000 L128.766 322.000 L120.328 308.750 Q119.750 307.828 119.164 306.852 Q118.578 305.875 117.828 304.539 Q117.078 303.203 115.969 301.234 L116.516 301.234 Q116.594 302.969 116.656 304.438 Q116.719 305.906 116.758 307.000 Q116.797 308.094 116.797 308.719 L116.797 322.000 L113.812 322.000 Z" fill="#2254d7"/>
<rect x="160" y="283" width="56" height="54" rx="4" fill="#e9eefb"/>
<path d="M187.250 322.312 Q184.266 322.312 181.930 320.867 Q179.594 319.422 178.250 316.742 Q176.906 314.062 176.906 310.375 Q176.906 306.672 178.250 303.992 Q179.594 301.312 181.930 299.859 Q184.266 298.406 187.250 298.406 Q190.234 298.406 192.562 299.859 Q194.891 301.312 196.227 303.992 Q197.562 306.672 197.562 310.375 Q197.562 314.062 196.227 316.742 Q194.891 319.422 192.562 320.867 Q190.234 322.312 187.250 322.312 Z M187.250 319.562 Q189.328 319.562 191.008 318.508 Q192.688 317.453 193.680 315.398 Q194.672 313.344 194.672 310.375 Q194.672 307.375 193.680 305.320 Q192.688 303.266 191.008 302.211 Q189.328 301.156 187.250 301.156 Q185.156 301.156 183.469 302.219 Q181.781 303.281 180.789 305.336 Q179.797 307.391 179.797 310.375 Q179.797 313.344 180.789 315.391 Q181.781 317.438 183.469 318.500 Q185.156 319.562 187.250 319.562 Z" fill="#2254d7"/>
<rect x="224" y="283" width="56" height="54" rx="4" fill="#e9eefb"/>
<path d="M241.812 322.000 L241.812 298.719 L249.781 298.719 Q252.500 298.719 254.258 299.711 Q256.016 300.703 256.867 302.375 Q257.719 304.047 257.719 306.125 Q257.719 308.203 256.867 309.891 Q256.016 311.578 254.266 312.578 Q252.516 313.578 249.797 313.578 L244.156 313.578 L244.156 310.969 L249.656 310.969 Q251.500 310.969 252.625 310.336 Q253.750 309.703 254.258 308.602 Q254.766 307.500 254.766 306.125 Q254.766 304.750 254.258 303.664 Q253.750 302.578 252.617 301.953 Q251.484 301.328 249.625 301.328 L244.781 301.328 L244.781 322.000 L241.812 322.000 Z" fill="#2254d7"/>
<rect x="288" y="283" width="56" height="54" rx="4" fill="#e9eefb"/>
<path d="M314.281 314.719 L317.375 314.719 L319.969 318.125 L320.625 319.031 L324.500 324.188 L321.406 324.188 L318.875 320.781 L318.219 319.906 L314.281 314.719 Z M315.250 322.312 Q312.266 322.312 309.930 320.867 Q307.594 319.422 306.250 316.742 Q304.906 314.062 304.906 310.375 Q304.906 306.672 306.250 303.992 Q307.594 301.312 309.930 299.859 Q312.266 298.406 315.250 298.406 Q318.234 298.406 320.562 299.859 Q322.891 301.312 324.227 303.992 Q325.562 306.672 325.562 310.375 Q325.562 314.062 324.227 316.742 Q322.891 319.422 320.562 320.867 Q318.234 322.312 315.250 322.312 Z M315.250 319.562 Q317.328 319.562 319.008 318.508 Q320.688 317.453 321.680 315.398 Q322.672 313.344 322.672 310.375 Q322.672 307.375 321.680 305.320 Q320.688 303.266 319.008 302.211 Q317.328 301.156 315.250 301.156 Q313.156 301.156 311.469 302.219 Q309.781 303.281 308.789 305.336 Q307.797 307.391 307.797 310.375 Q307.797 313.344 308.789 315.391 Q309.781 317.438 311.469 318.500 Q313.156 319.562 315.250 319.562 Z" fill="#2254d7"/>
<rect x="352" y="283" width="56" height="54" rx="4" fill="#e9eefb"/>
<path d="M369.812 322.000 L369.812 298.719 L377.781 298.719 Q380.500 298.719 382.258 299.648 Q384.016 300.578 384.867 302.203 Q385.719 303.828 385.719 305.906 Q385.719 307.984 384.867 309.578 Q384.016 311.172 382.266 312.070 Q380.516 312.969 377.797 312.969 L371.469 312.969 L371.469 310.328 L377.656 310.328 Q379.500 310.328 380.617 309.789 Q381.734 309.250 382.250 308.258 Q382.766 307.266 382.766 305.906 Q382.766 304.516 382.250 303.492 Q381.734 302.469 380.609 301.898 Q379.484 301.328 377.625 301.328 L372.781 301.328 L372.781 322.000 L369.812 322.000 Z M383.188 322.000 L377.562 311.516 L380.906 311.516 L386.625 322.000 L383.188 322.000 Z" fill="#2254d7"/>
<rect x="32" y="346" width="56" height="54" rx="4" fill="#e9eefb"/>
<path d="M57.266 385.406 Q54.750 385.406 52.898 384.594 Q51.047 383.781 50.000 382.320 Q48.953 380.859 48.812 378.906 L51.859 378.906 Q51.984 380.219 52.750 381.070 Q53.516 381.922 54.711 382.336 Q55.906 382.750 57.266 382.750 Q58.844 382.750 60.102 382.234 Q61.359 381.719 62.094 380.781 Q62.828 379.844 62.828 378.609 Q62.828 377.484 62.195 376.781 Q61.562 376.078 60.516 375.625 Q59.469 375.172 58.219 374.828 L55.406 374.031 Q52.594 373.234 51.031 371.750 Q49.469 370.266 49.469 367.953 Q49.469 365.984 50.531 364.508 Q51.594 363.031 53.406 362.219 Q55.219 361.406 57.469 361.406 Q59.766 361.406 61.531 362.219 Q63.297 363.031 64.320 364.430 Q65.344 365.828 65.406 367.594 L62.500 367.594 Q62.297 365.891 60.875 364.961 Q59.453 364.031 57.375 364.031 Q55.875 364.031 54.742 364.523 Q53.609 365.016 52.984 365.867 Q52.359 366.719 52.359 367.812 Q52.359 369.031 53.117 369.773 Q53.875 370.516 54.914 370.930 Q55.953 371.344 56.797 371.578 L59.125 372.219 Q60.062 372.469 61.195 372.906 Q62.328 373.344 63.359 374.070 Q64.391 374.797 65.055 375.914 Q65.719 377.031 65.719 378.656 Q65.719 380.562 64.727 382.094 Q63.734 383.625 61.844 384.516 Q59.953 385.406 57.266 385.406 Z" fill="#2254d7"/>
<rect x="96" y="346" width="56" height="54" rx="4" fill="#e9eefb"/>
<path d="M112.531 364.344 L112.531 361.719 L130.125 361.719 L130.125 364.344 L122.828 364.344 L122.828 385.000 L119.859 385.000 L119.859 364.344 L112.531 364.344 Z" fill="#2254d7"/>
<rect x="160" y="346" width="56" height="54" rx="4" fill="#e9eefb"/>
<path d="M186.922 385.375 Q184.172 385.375 182.117 384.297 Q180.062 383.219 178.938 381.344 Q177.812 379.469 177.812 377.078 L177.812 361.719 L180.781 361.719 L180.781 376.844 Q180.781 378.516 181.523 379.820 Q182.266 381.125 183.641 381.875 Q185.016 382.625 186.922 382.625 Q188.828 382.625 190.195 381.875 Q191.562 381.125 192.297 379.820 Q193.031 378.516 193.031 376.844 L193.031 361.719 L196.000 361.719 L196.000 377.078 Q196.000 379.469 194.875 381.344 Q193.750 383.219 191.711 384.297 Q189.672 385.375 186.922 385.375 Z" fill="#2254d7"/>
<rect x="224" y="346" width="56" height="54" rx="4" fill="#e9eefb"/>
<path d="M248.375 385.000 L239.812 361.719 L242.938 361.719 L247.859 375.531 Q248.281 376.719 248.914 378.703 Q249.547 380.688 250.391 383.594 L249.812 383.594 Q250.656 380.609 251.281 378.664 Q251.906 376.719 252.312 375.531 L257.109 361.719 L260.266 361.719 L251.797 385.000 L248.375 385.000 Z" fill="#2254d7"/>
<rect x="288" y="346" width="56" height="54" rx="4" fill="#e9eefb"/>
<path d="M310.156 385.000 L303.812 361.719 L306.844 361.719 L310.531 376.000 Q310.828 377.141 311.094 378.320 Q311.359 379.500 311.609 380.711 Q311.859 381.922 312.078 383.203 L311.719 383.203 Q311.953 381.922 312.203 380.711 Q312.453 379.500 312.734 378.320 Q313.016 377.141 313.312 376.000 L317.078 361.719 L320.453 361.719 L324.188 376.000 Q324.500 377.141 324.773 378.320 Q325.047 379.500 325.312 380.711 Q325.578 381.922 325.812 383.203 L325.406 383.203 Q325.641 381.922 325.891 380.711 Q326.141 379.500 326.422 378.320 Q326.703 377.141 326.984 376.000 L330.656 361.719 L333.719 361.719 L327.344 385.000 L323.891 385.000 L319.891 370.250 Q319.500 368.812 319.141 367.117 Q318.781 365.422 318.438 363.203 L319.062 363.203 Q318.719 365.297 318.391 366.945 Q318.062 368.594 317.609 370.250 L313.625 385.000 L310.156 385.000 Z" fill="#2254d7"/>
<rect x="352" y="346" width="56" height="54" rx="4" fill="#e9eefb"/>
<path d="M367.891 385.000 L377.000 371.984 L377.000 374.188 L368.406 361.719 L371.844 361.719 L375.203 366.656 Q375.953 367.750 376.430 368.500 Q376.906 369.250 377.305 369.969 Q377.703 370.688 378.203 371.688 L377.688 371.688 Q378.188 370.703 378.586 369.984 Q378.984 369.266 379.477 368.508 Q379.969 367.750 380.719 366.656 L384.141 361.719 L387.500 361.719 L378.922 374.062 L378.922 371.875 L387.938 385.000 L384.516 385.000 L380.438 379.094 Q379.781 378.125 379.328 377.430 Q378.875 376.734 378.484 376.039 Q378.094 375.344 377.609 374.375 L378.250 374.375 Q377.781 375.297 377.383 375.992 Q376.984 376.688 376.523 377.398 Q376.062 378.109 375.375 379.094 L371.266 385.000 L367.891 385.000 Z" fill="#2254d7"/>
<rect x="32" y="409" width="56" height="54" rx="4" fill="#e9eefb"/>
<path d="M56.375 448.000 L56.375 438.469 L47.812 424.719 L51.250 424.719 L55.859 432.234 Q56.641 433.500 57.242 434.648 Q57.844 435.797 58.484 437.547 L57.297 437.547 Q57.938 435.766 58.547 434.602 Q59.156 433.438 59.891 432.234 L64.484 424.719 L67.906 424.719 L59.344 438.469 L59.344 448.000 L56.375 448.000 Z" fill="#2254d7"/>
<rect x="96" y="409" width="56" height="54" rx="4" fill="#e9eefb"/>
<path d="M113.031 448.000 L113.031 445.906 L123.438 430.422 Q124.141 429.375 124.938 428.320 Q125.734 427.266 126.531 426.234 L126.859 427.203 Q125.422 427.297 123.969 427.320 Q122.516 427.344 121.078 427.344 L112.906 427.344 L112.906 424.719 L129.094 424.719 L129.094 426.844 L118.844 442.078 Q118.094 443.188 117.258 444.297 Q116.422 445.406 115.594 446.484 L115.266 445.516 Q116.703 445.422 118.133 445.398 Q119.562 445.375 121.000 445.375 L129.219 445.375 L129.219 448.000 L113.031 448.000 Z" fill="#2254d7"/>
<rect x="160" y="409" width="56" height="54" rx="4" fill="#e9eefb"/>
<path d="M185.094 448.312 Q182.500 448.312 180.672 446.906 Q178.844 445.500 177.875 442.836 Q176.906 440.172 176.906 436.375 Q176.906 432.594 177.883 429.922 Q178.859 427.250 180.688 425.828 Q182.516 424.406 185.094 424.406 Q187.672 424.406 189.508 425.828 Q191.344 427.250 192.312 429.922 Q193.281 432.594 193.281 436.375 Q193.281 440.156 192.320 442.828 Q191.359 445.500 189.531 446.906 Q187.703 448.312 185.094 448.312 Z M185.094 445.719 Q186.797 445.719 187.984 444.609 Q189.172 443.500 189.797 441.414 Q190.422 439.328 190.422 436.375 Q190.422 433.406 189.797 431.305 Q189.172 429.203 187.984 428.094 Q186.797 426.984 185.094 426.984 Q183.391 426.984 182.203 428.102 Q181.016 429.219 180.391 431.312 Q179.766 433.406 179.766 436.375 Q179.766 439.328 180.391 441.414 Q181.016 443.500 182.203 444.609 Q183.391 445.719 185.094 445.719 Z" fill="#2254d7"/>
<rect x="224" y="409" width="56" height="54" rx="4" fill="#e9eefb"/>
<path d="M249.203 424.719 L249.203 448.000 L246.281 448.000 L246.281 427.469 L246.125 427.469 L240.500 431.641 L240.500 428.453 L245.562 424.719 L249.203 424.719 Z" fill="#2254d7"/>
<rect x="288" y="409" width="56" height="54" rx="4" fill="#e9eefb"/>
<path d="M305.406 448.000 L305.406 445.859 L313.141 437.469 Q314.438 436.062 315.297 435.000 Q316.156 433.938 316.594 432.977 Q317.031 432.016 317.031 430.938 Q317.031 429.719 316.453 428.828 Q315.875 427.938 314.891 427.461 Q313.906 426.984 312.656 426.984 Q311.328 426.984 310.352 427.523 Q309.375 428.062 308.844 429.039 Q308.312 430.016 308.312 431.328 L305.469 431.328 Q305.469 429.266 306.422 427.703 Q307.375 426.141 309.016 425.273 Q310.656 424.406 312.734 424.406 Q314.812 424.406 316.414 425.273 Q318.016 426.141 318.930 427.609 Q319.844 429.078 319.844 430.906 Q319.844 432.172 319.391 433.367 Q318.938 434.562 317.797 436.078 Q316.656 437.594 314.594 439.781 L309.500 445.203 L309.500 445.391 L320.234 445.391 L320.234 448.000 L305.406 448.000 Z" fill="#2254d7"/>
<rect x="352" y="409" width="56" height="54" rx="4" fill="#e9eefb"/>
<path d="M376.922 448.312 Q374.641 448.312 372.875 447.531 Q371.109 446.750 370.070 445.359 Q369.031 443.969 368.953 442.125 L371.953 442.125 Q372.047 443.234 372.711 444.039 Q373.375 444.844 374.461 445.273 Q375.547 445.703 376.875 445.703 Q378.344 445.703 379.477 445.195 Q380.609 444.688 381.266 443.766 Q381.922 442.844 381.922 441.641 Q381.922 440.375 381.289 439.414 Q380.656 438.453 379.453 437.906 Q378.250 437.359 376.516 437.359 L374.625 437.359 L374.625 434.781 L376.516 434.781 Q377.875 434.781 378.914 434.289 Q379.953 433.797 380.531 432.906 Q381.109 432.016 381.109 430.812 Q381.109 429.656 380.602 428.797 Q380.094 427.938 379.156 427.461 Q378.219 426.984 376.953 426.984 Q375.766 426.984 374.727 427.414 Q373.688 427.844 373.023 428.641 Q372.359 429.438 372.312 430.578 L369.453 430.578 Q369.516 428.750 370.547 427.359 Q371.578 425.969 373.273 425.188 Q374.969 424.406 377.016 424.406 Q379.188 424.406 380.758 425.281 Q382.328 426.156 383.172 427.578 Q384.016 429.000 384.016 430.656 Q384.016 432.625 382.977 434.000 Q381.938 435.375 380.156 435.906 L380.156 436.094 Q381.641 436.328 382.695 437.094 Q383.750 437.859 384.305 439.031 Q384.859 440.203 384.859 441.672 Q384.859 443.578 383.828 445.078 Q382.797 446.578 381.000 447.445 Q379.203 448.312 376.922 448.312 Z" fill="#2254d7"/>
<rect x="32" y="472" width="56" height="54" rx="4" fill="#e9eefb"/>
<path d="M48.875 506.266 L48.875 503.844 L59.062 487.719 L60.859 487.719 L60.859 491.438 L59.656 491.438 L52.047 503.469 L52.047 503.656 L65.828 503.656 L65.828 506.266 L48.875 506.266 Z M59.828 511.000 L59.828 505.547 L59.844 504.406 L59.844 487.719 L62.672 487.719 L62.672 511.000 L59.828 511.000 Z" fill="#2254d7"/>
<rect x="96" y="472" width="56" height="54" rx="4" fill="#e9eefb"/>
<path d="M120.312 511.312 Q118.266 511.312 116.641 510.508 Q115.016 509.703 114.047 508.305 Q113.078 506.906 113.000 505.125 L115.875 505.125 Q115.969 506.156 116.578 506.969 Q117.188 507.781 118.164 508.242 Q119.141 508.703 120.312 508.703 Q121.719 508.703 122.820 508.047 Q123.922 507.391 124.547 506.234 Q125.172 505.078 125.172 503.609 Q125.172 502.109 124.516 500.922 Q123.859 499.734 122.727 499.055 Q121.594 498.375 120.125 498.375 Q119.047 498.375 117.938 498.719 Q116.828 499.062 116.141 499.594 L113.359 499.250 L114.734 487.719 L126.984 487.719 L126.984 490.328 L117.234 490.328 L116.438 497.125 L116.562 497.125 Q117.281 496.531 118.375 496.148 Q119.469 495.766 120.672 495.766 Q122.266 495.766 123.617 496.344 Q124.969 496.922 125.969 497.977 Q126.969 499.031 127.523 500.453 Q128.078 501.875 128.078 503.562 Q128.078 505.797 127.070 507.547 Q126.062 509.297 124.312 510.305 Q122.562 511.312 120.312 511.312 Z" fill="#2254d7"/>
<rect x="160" y="472" width="56" height="54" rx="4" fill="#e9eefb"/>
<path d="M185.094 511.312 Q183.641 511.312 182.188 510.781 Q180.734 510.250 179.539 509.000 Q178.344 507.750 177.625 505.609 Q176.906 503.469 176.906 500.250 Q176.906 497.172 177.492 494.789 Q178.078 492.406 179.195 490.758 Q180.312 489.109 181.891 488.258 Q183.469 487.406 185.453 487.406 Q187.406 487.406 188.953 488.188 Q190.500 488.969 191.484 490.359 Q192.469 491.750 192.750 493.578 L189.844 493.578 Q189.453 492.062 188.359 491.047 Q187.266 490.031 185.453 490.031 Q183.672 490.031 182.383 491.078 Q181.094 492.125 180.406 494.102 Q179.719 496.078 179.719 498.875 L179.906 498.875 Q180.531 497.906 181.406 497.211 Q182.281 496.516 183.359 496.148 Q184.438 495.781 185.641 495.781 Q187.641 495.781 189.297 496.766 Q190.953 497.750 191.945 499.492 Q192.938 501.234 192.938 503.484 Q192.938 505.656 191.969 507.430 Q191.000 509.203 189.234 510.258 Q187.469 511.312 185.094 511.312 Z M185.094 508.703 Q186.500 508.703 187.625 508.000 Q188.750 507.297 189.406 506.117 Q190.062 504.938 190.062 503.484 Q190.062 502.062 189.430 500.898 Q188.797 499.734 187.688 499.047 Q186.578 498.359 185.172 498.359 Q184.109 498.359 183.195 498.773 Q182.281 499.188 181.594 499.914 Q180.906 500.641 180.523 501.570 Q180.141 502.500 180.141 503.516 Q180.141 504.891 180.781 506.070 Q181.422 507.250 182.547 507.977 Q183.672 508.703 185.094 508.703 Z" fill="#2254d7"/>
<rect x="224" y="472" width="56" height="54" rx="4" fill="#e9eefb"/>
<path d="M242.125 511.000 L252.469 490.516 L252.469 490.328 L240.531 490.328 L240.531 487.719 L255.578 487.719 L255.578 490.484 L245.250 511.000 L242.125 511.000 Z" fill="#2254d7"/>
<rect x="288" y="472" width="56" height="54" rx="4" fill="#e9eefb"/>
<path d="M312.891 511.312 Q310.531 511.312 308.727 510.477 Q306.922 509.641 305.914 508.172 Q304.906 506.703 304.906 504.812 Q304.906 503.344 305.500 502.086 Q306.094 500.828 307.125 499.984 Q308.156 499.141 309.453 498.906 L309.453 498.781 Q307.750 498.344 306.750 496.891 Q305.750 495.438 305.750 493.594 Q305.750 491.812 306.672 490.414 Q307.594 489.016 309.203 488.211 Q310.812 487.406 312.891 487.406 Q314.938 487.406 316.547 488.211 Q318.156 489.016 319.086 490.414 Q320.016 491.812 320.016 493.594 Q320.016 495.438 319.008 496.891 Q318.000 498.344 316.344 498.781 L316.344 498.906 Q317.609 499.141 318.641 499.984 Q319.672 500.828 320.281 502.086 Q320.891 503.344 320.891 504.812 Q320.891 506.703 319.867 508.172 Q318.844 509.641 317.039 510.477 Q315.234 511.312 312.891 511.312 Z M312.891 508.734 Q314.438 508.734 315.562 508.227 Q316.688 507.719 317.305 506.805 Q317.922 505.891 317.922 504.656 Q317.922 503.359 317.266 502.367 Q316.609 501.375 315.469 500.805 Q314.328 500.234 312.891 500.234 Q311.422 500.234 310.281 500.805 Q309.141 501.375 308.484 502.367 Q307.828 503.359 307.828 504.656 Q307.828 505.891 308.438 506.805 Q309.047 507.719 310.188 508.227 Q311.328 508.734 312.891 508.734 Z M312.891 497.750 Q314.125 497.750 315.078 497.258 Q316.031 496.766 316.586 495.875 Q317.141 494.984 317.141 493.812 Q317.141 492.641 316.609 491.781 Q316.078 490.922 315.117 490.445 Q314.156 489.969 312.891 489.969 Q311.609 489.969 310.648 490.445 Q309.688 490.922 309.156 491.781 Q308.625 492.641 308.625 493.812 Q308.625 494.984 309.164 495.875 Q309.703 496.766 310.672 497.258 Q311.641 497.750 312.891 497.750 Z" fill="#2254d7"/>
<rect x="352" y="472" width="56" height="54" rx="4" fill="#e9eefb"/>
<path d="M376.422 511.312 Q374.438 511.312 372.891 510.531 Q371.344 509.750 370.359 508.344 Q369.375 506.938 369.094 505.078 L372.031 505.078 Q372.391 506.625 373.484 507.656 Q374.578 508.688 376.422 508.688 Q378.203 508.688 379.484 507.641 Q380.766 506.594 381.461 504.609 Q382.156 502.625 382.156 499.812 L381.969 499.812 Q381.344 500.766 380.469 501.461 Q379.594 502.156 378.523 502.539 Q377.453 502.922 376.234 502.922 Q374.234 502.922 372.562 501.930 Q370.891 500.938 369.898 499.195 Q368.906 497.453 368.906 495.219 Q368.906 493.047 369.891 491.258 Q370.875 489.469 372.648 488.414 Q374.422 487.359 376.812 487.406 Q378.250 487.422 379.688 487.961 Q381.125 488.500 382.312 489.734 Q383.500 490.969 384.219 493.094 Q384.938 495.219 384.938 498.438 Q384.938 501.531 384.352 503.922 Q383.766 506.312 382.656 507.961 Q381.547 509.609 379.969 510.461 Q378.391 511.312 376.422 511.312 Z M376.672 500.328 Q377.734 500.328 378.656 499.906 Q379.578 499.484 380.266 498.758 Q380.953 498.031 381.344 497.102 Q381.734 496.172 381.734 495.141 Q381.734 493.797 381.086 492.633 Q380.438 491.469 379.320 490.742 Q378.203 490.016 376.766 490.016 Q375.359 490.016 374.242 490.711 Q373.125 491.406 372.469 492.586 Q371.812 493.766 371.812 495.203 Q371.812 496.625 372.445 497.789 Q373.078 498.953 374.172 499.641 Q375.266 500.328 376.672 500.328 Z" fill="#2254d7"/>
<text x="32" y="574" font-size="24" fill="#243047">31,792 bytes / WOFF</text>
<text x="482" y="132" font-size="24" fill="#243047">Subset</text>
<rect x="482" y="157" width="56" height="54" rx="4" fill="#e9eefb"/>
<path d="M497.812 196.000 L506.266 172.719 L509.703 172.719 L518.266 196.000 L515.141 196.000 L510.203 182.188 Q509.750 180.906 509.148 178.992 Q508.547 177.078 507.688 174.109 L508.250 174.109 Q507.406 177.109 506.789 179.055 Q506.172 181.000 505.766 182.188 L500.969 196.000 L497.812 196.000 Z M502.062 189.500 L502.062 186.906 L514.016 186.906 L514.016 189.500 L502.062 189.500 Z" fill="#2254d7"/>
<rect x="546" y="157" width="56" height="54" rx="4" fill="#f0f2f6"/>
<path d="M563.812 196.000 L563.812 172.719 L572.062 172.719 Q574.500 172.719 576.086 173.555 Q577.672 174.391 578.445 175.789 Q579.219 177.188 579.219 178.891 Q579.219 180.391 578.688 181.367 Q578.156 182.344 577.289 182.922 Q576.422 183.500 575.406 183.781 L575.406 184.000 Q576.500 184.062 577.586 184.750 Q578.672 185.438 579.398 186.703 Q580.125 187.969 580.125 189.797 Q580.125 191.547 579.320 192.953 Q578.516 194.359 576.797 195.180 Q575.078 196.000 572.328 196.000 L563.812 196.000 Z M566.781 193.375 L572.250 193.375 Q574.969 193.375 576.117 192.328 Q577.266 191.281 577.266 189.766 Q577.266 188.594 576.672 187.609 Q576.078 186.625 574.992 186.031 Q573.906 185.438 572.406 185.438 L566.781 185.438 L566.781 193.375 Z M566.781 182.938 L571.906 182.938 Q573.156 182.938 574.172 182.445 Q575.188 181.953 575.781 181.055 Q576.375 180.156 576.375 178.953 Q576.375 177.438 575.320 176.391 Q574.266 175.344 572.000 175.344 L566.781 175.344 L566.781 182.938 Z" fill="#adb6c3"/>
<path d="M 552 205 L 596 163" fill="none" stroke="#9da7b6" stroke-width="1.5"/>
<rect x="610" y="157" width="56" height="54" rx="4" fill="#f0f2f6"/>
<path d="M637.234 196.312 Q634.250 196.312 631.914 194.867 Q629.578 193.422 628.242 190.742 Q626.906 188.062 626.906 184.375 Q626.906 180.672 628.242 177.992 Q629.578 175.312 631.914 173.859 Q634.250 172.406 637.234 172.406 Q639.000 172.406 640.570 172.922 Q642.141 173.438 643.391 174.430 Q644.641 175.422 645.477 176.836 Q646.312 178.250 646.625 180.047 L643.656 180.047 Q643.406 178.844 642.805 177.938 Q642.203 177.031 641.336 176.406 Q640.469 175.781 639.422 175.469 Q638.375 175.156 637.234 175.156 Q635.141 175.156 633.453 176.219 Q631.766 177.281 630.781 179.336 Q629.797 181.391 629.797 184.375 Q629.797 187.344 630.789 189.398 Q631.781 191.453 633.469 192.508 Q635.156 193.562 637.234 193.562 Q638.375 193.562 639.422 193.242 Q640.469 192.922 641.336 192.305 Q642.203 191.688 642.805 190.773 Q643.406 189.859 643.656 188.672 L646.625 188.672 Q646.328 190.453 645.492 191.859 Q644.656 193.266 643.406 194.266 Q642.156 195.266 640.586 195.789 Q639.016 196.312 637.234 196.312 Z" fill="#adb6c3"/>
<path d="M 616 205 L 660 163" fill="none" stroke="#9da7b6" stroke-width="1.5"/>
<rect x="674" y="157" width="56" height="54" rx="4" fill="#f0f2f6"/>
<path d="M699.078 196.000 L693.453 196.000 L693.453 193.375 L698.891 193.375 Q701.734 193.375 703.602 192.289 Q705.469 191.203 706.391 189.172 Q707.312 187.141 707.312 184.312 Q707.312 181.516 706.398 179.508 Q705.484 177.500 703.680 176.422 Q701.875 175.344 699.172 175.344 L693.328 175.344 L693.328 172.719 L699.375 172.719 Q702.781 172.719 705.195 174.109 Q707.609 175.500 708.898 178.102 Q710.188 180.703 710.188 184.312 Q710.188 187.953 708.891 190.570 Q707.594 193.188 705.109 194.594 Q702.625 196.000 699.078 196.000 Z M694.781 172.719 L694.781 196.000 L691.812 196.000 L691.812 172.719 L694.781 172.719 Z" fill="#adb6c3"/>
<path d="M 680 205 L 724 163" fill="none" stroke="#9da7b6" stroke-width="1.5"/>
<rect x="738" y="157" width="56" height="54" rx="4" fill="#f0f2f6"/>
<path d="M755.812 196.000 L755.812 172.719 L770.000 172.719 L770.000 175.344 L758.781 175.344 L758.781 182.938 L769.234 182.938 L769.234 185.562 L758.781 185.562 L758.781 193.375 L770.141 193.375 L770.141 196.000 L755.812 196.000 Z" fill="#adb6c3"/>
<path d="M 744 205 L 788 163" fill="none" stroke="#9da7b6" stroke-width="1.5"/>
<rect x="802" y="157" width="56" height="54" rx="4" fill="#e9eefb"/>
<path d="M819.812 196.000 L819.812 172.719 L833.891 172.719 L833.891 175.344 L822.781 175.344 L822.781 183.312 L832.828 183.312 L832.828 185.938 L822.781 185.938 L822.781 196.000 L819.812 196.000 Z" fill="#2254d7"/>
<rect x="482" y="220" width="56" height="54" rx="4" fill="#f0f2f6"/>
<path d="M509.328 259.312 Q506.219 259.312 503.875 257.859 Q501.531 256.406 500.219 253.727 Q498.906 251.047 498.906 247.375 Q498.906 243.672 500.219 240.992 Q501.531 238.312 503.844 236.859 Q506.156 235.406 509.141 235.406 Q510.984 235.406 512.586 235.953 Q514.188 236.500 515.453 237.516 Q516.719 238.531 517.555 239.930 Q518.391 241.328 518.703 243.016 L515.641 243.016 Q515.281 241.891 514.688 241.000 Q514.094 240.109 513.273 239.469 Q512.453 238.828 511.422 238.492 Q510.391 238.156 509.156 238.156 Q507.109 238.156 505.438 239.211 Q503.766 240.266 502.781 242.320 Q501.797 244.375 501.797 247.375 Q501.797 250.344 502.789 252.391 Q503.781 254.438 505.484 255.500 Q507.188 256.562 509.328 256.562 Q511.297 256.562 512.797 255.727 Q514.297 254.891 515.133 253.352 Q515.969 251.812 515.969 249.719 L516.859 249.891 L509.938 249.891 L509.938 247.297 L518.875 247.297 L518.875 249.844 Q518.875 252.734 517.641 254.859 Q516.406 256.984 514.258 258.148 Q512.109 259.312 509.328 259.312 Z" fill="#adb6c3"/>
<path d="M 488 268 L 532 226" fill="none" stroke="#9da7b6" stroke-width="1.5"/>
<rect x="546" y="220" width="56" height="54" rx="4" fill="#f0f2f6"/>
<path d="M563.812 259.000 L563.812 235.719 L566.781 235.719 L566.781 245.781 L579.000 245.781 L579.000 235.719 L581.969 235.719 L581.969 259.000 L579.000 259.000 L579.000 248.406 L566.781 248.406 L566.781 259.000 L563.812 259.000 Z" fill="#adb6c3"/>
<path d="M 552 268 L 596 226" fill="none" stroke="#9da7b6" stroke-width="1.5"/>
<rect x="610" y="220" width="56" height="54" rx="4" fill="#f0f2f6"/>
<path d="M630.781 235.719 L630.781 259.000 L627.812 259.000 L627.812 235.719 L630.781 235.719 Z" fill="#adb6c3"/>
<path d="M 616 268 L 660 226" fill="none" stroke="#9da7b6" stroke-width="1.5"/>
<rect x="674" y="220" width="56" height="54" rx="4" fill="#f0f2f6"/>
<path d="M697.516 259.312 Q694.438 259.312 692.500 257.500 Q690.562 255.688 690.562 252.344 L690.562 251.094 L693.531 251.094 L693.531 252.344 Q693.531 254.469 694.625 255.586 Q695.719 256.703 697.516 256.703 Q699.297 256.703 700.391 255.586 Q701.484 254.469 701.484 252.344 L701.484 235.719 L704.453 235.719 L704.453 252.344 Q704.453 255.688 702.523 257.500 Q700.594 259.312 697.516 259.312 Z" fill="#adb6c3"/>
<path d="M 680 268 L 724 226" fill="none" stroke="#9da7b6" stroke-width="1.5"/>
<rect x="738" y="220" width="56" height="54" rx="4" fill="#f0f2f6"/>
<path d="M757.844 252.344 L757.844 249.172 Q758.641 248.078 759.430 247.078 Q760.219 246.078 761.047 245.125 Q761.875 244.172 762.750 243.234 L769.703 235.719 L773.594 235.719 L763.656 246.375 L763.500 246.359 L757.844 252.344 Z M755.812 259.000 L755.812 235.719 L758.781 235.719 L758.781 243.688 L758.734 248.703 L758.781 250.156 L758.781 259.000 L755.812 259.000 Z M770.094 259.000 L761.672 247.156 L763.516 244.844 L773.609 259.000 L770.094 259.000 Z" fill="#adb6c3"/>
<path d="M 744 268 L 788 226" fill="none" stroke="#9da7b6" stroke-width="1.5"/>
<rect x="802" y="220" width="56" height="54" rx="4" fill="#e9eefb"/>
<path d="M819.812 259.000 L819.812 235.719 L822.781 235.719 L822.781 256.375 L833.562 256.375 L833.562 259.000 L819.812 259.000 Z" fill="#2254d7"/>
<rect x="482" y="283" width="56" height="54" rx="4" fill="#f0f2f6"/>
<path d="M499.812 322.000 L499.812 298.719 L504.031 298.719 L509.766 313.406 Q509.969 313.922 510.227 314.695 Q510.484 315.469 510.773 316.375 Q511.062 317.281 511.328 318.180 Q511.594 319.078 511.797 319.844 L511.141 319.844 Q511.359 319.125 511.625 318.242 Q511.891 317.359 512.180 316.445 Q512.469 315.531 512.734 314.734 Q513.000 313.938 513.203 313.406 L518.859 298.719 L523.094 298.719 L523.094 322.000 L520.172 322.000 L520.172 308.703 Q520.172 307.984 520.180 307.062 Q520.188 306.141 520.211 305.125 Q520.234 304.109 520.258 303.062 Q520.281 302.016 520.297 301.031 L520.547 301.031 Q520.219 302.109 519.852 303.227 Q519.484 304.344 519.133 305.383 Q518.781 306.422 518.469 307.281 Q518.156 308.141 517.938 308.703 L512.734 322.000 L510.156 322.000 L504.875 308.703 Q504.656 308.156 504.359 307.320 Q504.062 306.484 503.711 305.461 Q503.359 304.438 502.984 303.305 Q502.609 302.172 502.219 301.031 L502.500 301.031 Q502.531 301.906 502.555 302.922 Q502.578 303.938 502.594 304.977 Q502.609 306.016 502.625 306.977 Q502.641 307.938 502.641 308.703 L502.641 322.000 L499.812 322.000 Z" fill="#adb6c3"/>
<path d="M 488 331 L 532 289" fill="none" stroke="#9da7b6" stroke-width="1.5"/>
<rect x="546" y="283" width="56" height="54" rx="4" fill="#f0f2f6"/>
<path d="M563.812 322.000 L563.812 298.719 L567.312 298.719 L576.781 313.609 Q577.156 314.188 577.688 315.094 Q578.219 316.000 578.836 317.141 Q579.453 318.281 580.047 319.578 L579.625 319.578 Q579.484 318.234 579.422 317.008 Q579.359 315.781 579.344 314.750 Q579.328 313.719 579.328 313.000 L579.328 298.719 L582.297 298.719 L582.297 322.000 L578.766 322.000 L570.328 308.750 Q569.750 307.828 569.164 306.852 Q568.578 305.875 567.828 304.539 Q567.078 303.203 565.969 301.234 L566.516 301.234 Q566.594 302.969 566.656 304.438 Q566.719 305.906 566.758 307.000 Q566.797 308.094 566.797 308.719 L566.797 322.000 L563.812 322.000 Z" fill="#adb6c3"/>
<path d="M 552 331 L 596 289" fill="none" stroke="#9da7b6" stroke-width="1.5"/>
<rect x="610" y="283" width="56" height="54" rx="4" fill="#e9eefb"/>
<path d="M637.250 322.312 Q634.266 322.312 631.930 320.867 Q629.594 319.422 628.250 316.742 Q626.906 314.062 626.906 310.375 Q626.906 306.672 628.250 303.992 Q629.594 301.312 631.930 299.859 Q634.266 298.406 637.250 298.406 Q640.234 298.406 642.562 299.859 Q644.891 301.312 646.227 303.992 Q647.562 306.672 647.562 310.375 Q647.562 314.062 646.227 316.742 Q644.891 319.422 642.562 320.867 Q640.234 322.312 637.250 322.312 Z M637.250 319.562 Q639.328 319.562 641.008 318.508 Q642.688 317.453 643.680 315.398 Q644.672 313.344 644.672 310.375 Q644.672 307.375 643.680 305.320 Q642.688 303.266 641.008 302.211 Q639.328 301.156 637.250 301.156 Q635.156 301.156 633.469 302.219 Q631.781 303.281 630.789 305.336 Q629.797 307.391 629.797 310.375 Q629.797 313.344 630.789 315.391 Q631.781 317.438 633.469 318.500 Q635.156 319.562 637.250 319.562 Z" fill="#2254d7"/>
<rect x="674" y="283" width="56" height="54" rx="4" fill="#f0f2f6"/>
<path d="M691.812 322.000 L691.812 298.719 L699.781 298.719 Q702.500 298.719 704.258 299.711 Q706.016 300.703 706.867 302.375 Q707.719 304.047 707.719 306.125 Q707.719 308.203 706.867 309.891 Q706.016 311.578 704.266 312.578 Q702.516 313.578 699.797 313.578 L694.156 313.578 L694.156 310.969 L699.656 310.969 Q701.500 310.969 702.625 310.336 Q703.750 309.703 704.258 308.602 Q704.766 307.500 704.766 306.125 Q704.766 304.750 704.258 303.664 Q703.750 302.578 702.617 301.953 Q701.484 301.328 699.625 301.328 L694.781 301.328 L694.781 322.000 L691.812 322.000 Z" fill="#adb6c3"/>
<path d="M 680 331 L 724 289" fill="none" stroke="#9da7b6" stroke-width="1.5"/>
<rect x="738" y="283" width="56" height="54" rx="4" fill="#f0f2f6"/>
<path d="M764.281 314.719 L767.375 314.719 L769.969 318.125 L770.625 319.031 L774.500 324.188 L771.406 324.188 L768.875 320.781 L768.219 319.906 L764.281 314.719 Z M765.250 322.312 Q762.266 322.312 759.930 320.867 Q757.594 319.422 756.250 316.742 Q754.906 314.062 754.906 310.375 Q754.906 306.672 756.250 303.992 Q757.594 301.312 759.930 299.859 Q762.266 298.406 765.250 298.406 Q768.234 298.406 770.562 299.859 Q772.891 301.312 774.227 303.992 Q775.562 306.672 775.562 310.375 Q775.562 314.062 774.227 316.742 Q772.891 319.422 770.562 320.867 Q768.234 322.312 765.250 322.312 Z M765.250 319.562 Q767.328 319.562 769.008 318.508 Q770.688 317.453 771.680 315.398 Q772.672 313.344 772.672 310.375 Q772.672 307.375 771.680 305.320 Q770.688 303.266 769.008 302.211 Q767.328 301.156 765.250 301.156 Q763.156 301.156 761.469 302.219 Q759.781 303.281 758.789 305.336 Q757.797 307.391 757.797 310.375 Q757.797 313.344 758.789 315.391 Q759.781 317.438 761.469 318.500 Q763.156 319.562 765.250 319.562 Z" fill="#adb6c3"/>
<path d="M 744 331 L 788 289" fill="none" stroke="#9da7b6" stroke-width="1.5"/>
<rect x="802" y="283" width="56" height="54" rx="4" fill="#f0f2f6"/>
<path d="M819.812 322.000 L819.812 298.719 L827.781 298.719 Q830.500 298.719 832.258 299.648 Q834.016 300.578 834.867 302.203 Q835.719 303.828 835.719 305.906 Q835.719 307.984 834.867 309.578 Q834.016 311.172 832.266 312.070 Q830.516 312.969 827.797 312.969 L821.469 312.969 L821.469 310.328 L827.656 310.328 Q829.500 310.328 830.617 309.789 Q831.734 309.250 832.250 308.258 Q832.766 307.266 832.766 305.906 Q832.766 304.516 832.250 303.492 Q831.734 302.469 830.609 301.898 Q829.484 301.328 827.625 301.328 L822.781 301.328 L822.781 322.000 L819.812 322.000 Z M833.188 322.000 L827.562 311.516 L830.906 311.516 L836.625 322.000 L833.188 322.000 Z" fill="#adb6c3"/>
<path d="M 808 331 L 852 289" fill="none" stroke="#9da7b6" stroke-width="1.5"/>
<rect x="482" y="346" width="56" height="54" rx="4" fill="#f0f2f6"/>
<path d="M507.266 385.406 Q504.750 385.406 502.898 384.594 Q501.047 383.781 500.000 382.320 Q498.953 380.859 498.812 378.906 L501.859 378.906 Q501.984 380.219 502.750 381.070 Q503.516 381.922 504.711 382.336 Q505.906 382.750 507.266 382.750 Q508.844 382.750 510.102 382.234 Q511.359 381.719 512.094 380.781 Q512.828 379.844 512.828 378.609 Q512.828 377.484 512.195 376.781 Q511.562 376.078 510.516 375.625 Q509.469 375.172 508.219 374.828 L505.406 374.031 Q502.594 373.234 501.031 371.750 Q499.469 370.266 499.469 367.953 Q499.469 365.984 500.531 364.508 Q501.594 363.031 503.406 362.219 Q505.219 361.406 507.469 361.406 Q509.766 361.406 511.531 362.219 Q513.297 363.031 514.320 364.430 Q515.344 365.828 515.406 367.594 L512.500 367.594 Q512.297 365.891 510.875 364.961 Q509.453 364.031 507.375 364.031 Q505.875 364.031 504.742 364.523 Q503.609 365.016 502.984 365.867 Q502.359 366.719 502.359 367.812 Q502.359 369.031 503.117 369.773 Q503.875 370.516 504.914 370.930 Q505.953 371.344 506.797 371.578 L509.125 372.219 Q510.062 372.469 511.195 372.906 Q512.328 373.344 513.359 374.070 Q514.391 374.797 515.055 375.914 Q515.719 377.031 515.719 378.656 Q515.719 380.562 514.727 382.094 Q513.734 383.625 511.844 384.516 Q509.953 385.406 507.266 385.406 Z" fill="#adb6c3"/>
<path d="M 488 394 L 532 352" fill="none" stroke="#9da7b6" stroke-width="1.5"/>
<rect x="546" y="346" width="56" height="54" rx="4" fill="#e9eefb"/>
<path d="M562.531 364.344 L562.531 361.719 L580.125 361.719 L580.125 364.344 L572.828 364.344 L572.828 385.000 L569.859 385.000 L569.859 364.344 L562.531 364.344 Z" fill="#2254d7"/>
<rect x="610" y="346" width="56" height="54" rx="4" fill="#f0f2f6"/>
<path d="M636.922 385.375 Q634.172 385.375 632.117 384.297 Q630.062 383.219 628.938 381.344 Q627.812 379.469 627.812 377.078 L627.812 361.719 L630.781 361.719 L630.781 376.844 Q630.781 378.516 631.523 379.820 Q632.266 381.125 633.641 381.875 Q635.016 382.625 636.922 382.625 Q638.828 382.625 640.195 381.875 Q641.562 381.125 642.297 379.820 Q643.031 378.516 643.031 376.844 L643.031 361.719 L646.000 361.719 L646.000 377.078 Q646.000 379.469 644.875 381.344 Q643.750 383.219 641.711 384.297 Q639.672 385.375 636.922 385.375 Z" fill="#adb6c3"/>
<path d="M 616 394 L 660 352" fill="none" stroke="#9da7b6" stroke-width="1.5"/>
<rect x="674" y="346" width="56" height="54" rx="4" fill="#f0f2f6"/>
<path d="M698.375 385.000 L689.812 361.719 L692.938 361.719 L697.859 375.531 Q698.281 376.719 698.914 378.703 Q699.547 380.688 700.391 383.594 L699.812 383.594 Q700.656 380.609 701.281 378.664 Q701.906 376.719 702.312 375.531 L707.109 361.719 L710.266 361.719 L701.797 385.000 L698.375 385.000 Z" fill="#adb6c3"/>
<path d="M 680 394 L 724 352" fill="none" stroke="#9da7b6" stroke-width="1.5"/>
<rect x="738" y="346" width="56" height="54" rx="4" fill="#f0f2f6"/>
<path d="M760.156 385.000 L753.812 361.719 L756.844 361.719 L760.531 376.000 Q760.828 377.141 761.094 378.320 Q761.359 379.500 761.609 380.711 Q761.859 381.922 762.078 383.203 L761.719 383.203 Q761.953 381.922 762.203 380.711 Q762.453 379.500 762.734 378.320 Q763.016 377.141 763.312 376.000 L767.078 361.719 L770.453 361.719 L774.188 376.000 Q774.500 377.141 774.773 378.320 Q775.047 379.500 775.312 380.711 Q775.578 381.922 775.812 383.203 L775.406 383.203 Q775.641 381.922 775.891 380.711 Q776.141 379.500 776.422 378.320 Q776.703 377.141 776.984 376.000 L780.656 361.719 L783.719 361.719 L777.344 385.000 L773.891 385.000 L769.891 370.250 Q769.500 368.812 769.141 367.117 Q768.781 365.422 768.438 363.203 L769.062 363.203 Q768.719 365.297 768.391 366.945 Q768.062 368.594 767.609 370.250 L763.625 385.000 L760.156 385.000 Z" fill="#adb6c3"/>
<path d="M 744 394 L 788 352" fill="none" stroke="#9da7b6" stroke-width="1.5"/>
<rect x="802" y="346" width="56" height="54" rx="4" fill="#f0f2f6"/>
<path d="M817.891 385.000 L827.000 371.984 L827.000 374.188 L818.406 361.719 L821.844 361.719 L825.203 366.656 Q825.953 367.750 826.430 368.500 Q826.906 369.250 827.305 369.969 Q827.703 370.688 828.203 371.688 L827.688 371.688 Q828.188 370.703 828.586 369.984 Q828.984 369.266 829.477 368.508 Q829.969 367.750 830.719 366.656 L834.141 361.719 L837.500 361.719 L828.922 374.062 L828.922 371.875 L837.938 385.000 L834.516 385.000 L830.438 379.094 Q829.781 378.125 829.328 377.430 Q828.875 376.734 828.484 376.039 Q828.094 375.344 827.609 374.375 L828.250 374.375 Q827.781 375.297 827.383 375.992 Q826.984 376.688 826.523 377.398 Q826.062 378.109 825.375 379.094 L821.266 385.000 L817.891 385.000 Z" fill="#adb6c3"/>
<path d="M 808 394 L 852 352" fill="none" stroke="#9da7b6" stroke-width="1.5"/>
<rect x="482" y="409" width="56" height="54" rx="4" fill="#f0f2f6"/>
<path d="M506.375 448.000 L506.375 438.469 L497.812 424.719 L501.250 424.719 L505.859 432.234 Q506.641 433.500 507.242 434.648 Q507.844 435.797 508.484 437.547 L507.297 437.547 Q507.938 435.766 508.547 434.602 Q509.156 433.438 509.891 432.234 L514.484 424.719 L517.906 424.719 L509.344 438.469 L509.344 448.000 L506.375 448.000 Z" fill="#adb6c3"/>
<path d="M 488 457 L 532 415" fill="none" stroke="#9da7b6" stroke-width="1.5"/>
<rect x="546" y="409" width="56" height="54" rx="4" fill="#f0f2f6"/>
<path d="M563.031 448.000 L563.031 445.906 L573.438 430.422 Q574.141 429.375 574.938 428.320 Q575.734 427.266 576.531 426.234 L576.859 427.203 Q575.422 427.297 573.969 427.320 Q572.516 427.344 571.078 427.344 L562.906 427.344 L562.906 424.719 L579.094 424.719 L579.094 426.844 L568.844 442.078 Q568.094 443.188 567.258 444.297 Q566.422 445.406 565.594 446.484 L565.266 445.516 Q566.703 445.422 568.133 445.398 Q569.562 445.375 571.000 445.375 L579.219 445.375 L579.219 448.000 L563.031 448.000 Z" fill="#adb6c3"/>
<path d="M 552 457 L 596 415" fill="none" stroke="#9da7b6" stroke-width="1.5"/>
<rect x="610" y="409" width="56" height="54" rx="4" fill="#e9eefb"/>
<path d="M635.094 448.312 Q632.500 448.312 630.672 446.906 Q628.844 445.500 627.875 442.836 Q626.906 440.172 626.906 436.375 Q626.906 432.594 627.883 429.922 Q628.859 427.250 630.688 425.828 Q632.516 424.406 635.094 424.406 Q637.672 424.406 639.508 425.828 Q641.344 427.250 642.312 429.922 Q643.281 432.594 643.281 436.375 Q643.281 440.156 642.320 442.828 Q641.359 445.500 639.531 446.906 Q637.703 448.312 635.094 448.312 Z M635.094 445.719 Q636.797 445.719 637.984 444.609 Q639.172 443.500 639.797 441.414 Q640.422 439.328 640.422 436.375 Q640.422 433.406 639.797 431.305 Q639.172 429.203 637.984 428.094 Q636.797 426.984 635.094 426.984 Q633.391 426.984 632.203 428.102 Q631.016 429.219 630.391 431.312 Q629.766 433.406 629.766 436.375 Q629.766 439.328 630.391 441.414 Q631.016 443.500 632.203 444.609 Q633.391 445.719 635.094 445.719 Z" fill="#2254d7"/>
<rect x="674" y="409" width="56" height="54" rx="4" fill="#e9eefb"/>
<path d="M699.203 424.719 L699.203 448.000 L696.281 448.000 L696.281 427.469 L696.125 427.469 L690.500 431.641 L690.500 428.453 L695.562 424.719 L699.203 424.719 Z" fill="#2254d7"/>
<rect x="738" y="409" width="56" height="54" rx="4" fill="#e9eefb"/>
<path d="M755.406 448.000 L755.406 445.859 L763.141 437.469 Q764.438 436.062 765.297 435.000 Q766.156 433.938 766.594 432.977 Q767.031 432.016 767.031 430.938 Q767.031 429.719 766.453 428.828 Q765.875 427.938 764.891 427.461 Q763.906 426.984 762.656 426.984 Q761.328 426.984 760.352 427.523 Q759.375 428.062 758.844 429.039 Q758.312 430.016 758.312 431.328 L755.469 431.328 Q755.469 429.266 756.422 427.703 Q757.375 426.141 759.016 425.273 Q760.656 424.406 762.734 424.406 Q764.812 424.406 766.414 425.273 Q768.016 426.141 768.930 427.609 Q769.844 429.078 769.844 430.906 Q769.844 432.172 769.391 433.367 Q768.938 434.562 767.797 436.078 Q766.656 437.594 764.594 439.781 L759.500 445.203 L759.500 445.391 L770.234 445.391 L770.234 448.000 L755.406 448.000 Z" fill="#2254d7"/>
<rect x="802" y="409" width="56" height="54" rx="4" fill="#e9eefb"/>
<path d="M826.922 448.312 Q824.641 448.312 822.875 447.531 Q821.109 446.750 820.070 445.359 Q819.031 443.969 818.953 442.125 L821.953 442.125 Q822.047 443.234 822.711 444.039 Q823.375 444.844 824.461 445.273 Q825.547 445.703 826.875 445.703 Q828.344 445.703 829.477 445.195 Q830.609 444.688 831.266 443.766 Q831.922 442.844 831.922 441.641 Q831.922 440.375 831.289 439.414 Q830.656 438.453 829.453 437.906 Q828.250 437.359 826.516 437.359 L824.625 437.359 L824.625 434.781 L826.516 434.781 Q827.875 434.781 828.914 434.289 Q829.953 433.797 830.531 432.906 Q831.109 432.016 831.109 430.812 Q831.109 429.656 830.602 428.797 Q830.094 427.938 829.156 427.461 Q828.219 426.984 826.953 426.984 Q825.766 426.984 824.727 427.414 Q823.688 427.844 823.023 428.641 Q822.359 429.438 822.312 430.578 L819.453 430.578 Q819.516 428.750 820.547 427.359 Q821.578 425.969 823.273 425.188 Q824.969 424.406 827.016 424.406 Q829.188 424.406 830.758 425.281 Q832.328 426.156 833.172 427.578 Q834.016 429.000 834.016 430.656 Q834.016 432.625 832.977 434.000 Q831.938 435.375 830.156 435.906 L830.156 436.094 Q831.641 436.328 832.695 437.094 Q833.750 437.859 834.305 439.031 Q834.859 440.203 834.859 441.672 Q834.859 443.578 833.828 445.078 Q832.797 446.578 831.000 447.445 Q829.203 448.312 826.922 448.312 Z" fill="#2254d7"/>
<rect x="482" y="472" width="56" height="54" rx="4" fill="#e9eefb"/>
<path d="M498.875 506.266 L498.875 503.844 L509.062 487.719 L510.859 487.719 L510.859 491.438 L509.656 491.438 L502.047 503.469 L502.047 503.656 L515.828 503.656 L515.828 506.266 L498.875 506.266 Z M509.828 511.000 L509.828 505.547 L509.844 504.406 L509.844 487.719 L512.672 487.719 L512.672 511.000 L509.828 511.000 Z" fill="#2254d7"/>
<rect x="546" y="472" width="56" height="54" rx="4" fill="#e9eefb"/>
<path d="M570.312 511.312 Q568.266 511.312 566.641 510.508 Q565.016 509.703 564.047 508.305 Q563.078 506.906 563.000 505.125 L565.875 505.125 Q565.969 506.156 566.578 506.969 Q567.188 507.781 568.164 508.242 Q569.141 508.703 570.312 508.703 Q571.719 508.703 572.820 508.047 Q573.922 507.391 574.547 506.234 Q575.172 505.078 575.172 503.609 Q575.172 502.109 574.516 500.922 Q573.859 499.734 572.727 499.055 Q571.594 498.375 570.125 498.375 Q569.047 498.375 567.938 498.719 Q566.828 499.062 566.141 499.594 L563.359 499.250 L564.734 487.719 L576.984 487.719 L576.984 490.328 L567.234 490.328 L566.438 497.125 L566.562 497.125 Q567.281 496.531 568.375 496.148 Q569.469 495.766 570.672 495.766 Q572.266 495.766 573.617 496.344 Q574.969 496.922 575.969 497.977 Q576.969 499.031 577.523 500.453 Q578.078 501.875 578.078 503.562 Q578.078 505.797 577.070 507.547 Q576.062 509.297 574.312 510.305 Q572.562 511.312 570.312 511.312 Z" fill="#2254d7"/>
<rect x="610" y="472" width="56" height="54" rx="4" fill="#e9eefb"/>
<path d="M635.094 511.312 Q633.641 511.312 632.188 510.781 Q630.734 510.250 629.539 509.000 Q628.344 507.750 627.625 505.609 Q626.906 503.469 626.906 500.250 Q626.906 497.172 627.492 494.789 Q628.078 492.406 629.195 490.758 Q630.312 489.109 631.891 488.258 Q633.469 487.406 635.453 487.406 Q637.406 487.406 638.953 488.188 Q640.500 488.969 641.484 490.359 Q642.469 491.750 642.750 493.578 L639.844 493.578 Q639.453 492.062 638.359 491.047 Q637.266 490.031 635.453 490.031 Q633.672 490.031 632.383 491.078 Q631.094 492.125 630.406 494.102 Q629.719 496.078 629.719 498.875 L629.906 498.875 Q630.531 497.906 631.406 497.211 Q632.281 496.516 633.359 496.148 Q634.438 495.781 635.641 495.781 Q637.641 495.781 639.297 496.766 Q640.953 497.750 641.945 499.492 Q642.938 501.234 642.938 503.484 Q642.938 505.656 641.969 507.430 Q641.000 509.203 639.234 510.258 Q637.469 511.312 635.094 511.312 Z M635.094 508.703 Q636.500 508.703 637.625 508.000 Q638.750 507.297 639.406 506.117 Q640.062 504.938 640.062 503.484 Q640.062 502.062 639.430 500.898 Q638.797 499.734 637.688 499.047 Q636.578 498.359 635.172 498.359 Q634.109 498.359 633.195 498.773 Q632.281 499.188 631.594 499.914 Q630.906 500.641 630.523 501.570 Q630.141 502.500 630.141 503.516 Q630.141 504.891 630.781 506.070 Q631.422 507.250 632.547 507.977 Q633.672 508.703 635.094 508.703 Z" fill="#2254d7"/>
<rect x="674" y="472" width="56" height="54" rx="4" fill="#e9eefb"/>
<path d="M692.125 511.000 L702.469 490.516 L702.469 490.328 L690.531 490.328 L690.531 487.719 L705.578 487.719 L705.578 490.484 L695.250 511.000 L692.125 511.000 Z" fill="#2254d7"/>
<rect x="738" y="472" width="56" height="54" rx="4" fill="#e9eefb"/>
<path d="M762.891 511.312 Q760.531 511.312 758.727 510.477 Q756.922 509.641 755.914 508.172 Q754.906 506.703 754.906 504.812 Q754.906 503.344 755.500 502.086 Q756.094 500.828 757.125 499.984 Q758.156 499.141 759.453 498.906 L759.453 498.781 Q757.750 498.344 756.750 496.891 Q755.750 495.438 755.750 493.594 Q755.750 491.812 756.672 490.414 Q757.594 489.016 759.203 488.211 Q760.812 487.406 762.891 487.406 Q764.938 487.406 766.547 488.211 Q768.156 489.016 769.086 490.414 Q770.016 491.812 770.016 493.594 Q770.016 495.438 769.008 496.891 Q768.000 498.344 766.344 498.781 L766.344 498.906 Q767.609 499.141 768.641 499.984 Q769.672 500.828 770.281 502.086 Q770.891 503.344 770.891 504.812 Q770.891 506.703 769.867 508.172 Q768.844 509.641 767.039 510.477 Q765.234 511.312 762.891 511.312 Z M762.891 508.734 Q764.438 508.734 765.562 508.227 Q766.688 507.719 767.305 506.805 Q767.922 505.891 767.922 504.656 Q767.922 503.359 767.266 502.367 Q766.609 501.375 765.469 500.805 Q764.328 500.234 762.891 500.234 Q761.422 500.234 760.281 500.805 Q759.141 501.375 758.484 502.367 Q757.828 503.359 757.828 504.656 Q757.828 505.891 758.438 506.805 Q759.047 507.719 760.188 508.227 Q761.328 508.734 762.891 508.734 Z M762.891 497.750 Q764.125 497.750 765.078 497.258 Q766.031 496.766 766.586 495.875 Q767.141 494.984 767.141 493.812 Q767.141 492.641 766.609 491.781 Q766.078 490.922 765.117 490.445 Q764.156 489.969 762.891 489.969 Q761.609 489.969 760.648 490.445 Q759.688 490.922 759.156 491.781 Q758.625 492.641 758.625 493.812 Q758.625 494.984 759.164 495.875 Q759.703 496.766 760.672 497.258 Q761.641 497.750 762.891 497.750 Z" fill="#2254d7"/>
<rect x="802" y="472" width="56" height="54" rx="4" fill="#e9eefb"/>
<path d="M826.422 511.312 Q824.438 511.312 822.891 510.531 Q821.344 509.750 820.359 508.344 Q819.375 506.938 819.094 505.078 L822.031 505.078 Q822.391 506.625 823.484 507.656 Q824.578 508.688 826.422 508.688 Q828.203 508.688 829.484 507.641 Q830.766 506.594 831.461 504.609 Q832.156 502.625 832.156 499.812 L831.969 499.812 Q831.344 500.766 830.469 501.461 Q829.594 502.156 828.523 502.539 Q827.453 502.922 826.234 502.922 Q824.234 502.922 822.562 501.930 Q820.891 500.938 819.898 499.195 Q818.906 497.453 818.906 495.219 Q818.906 493.047 819.891 491.258 Q820.875 489.469 822.648 488.414 Q824.422 487.359 826.812 487.406 Q828.250 487.422 829.688 487.961 Q831.125 488.500 832.312 489.734 Q833.500 490.969 834.219 493.094 Q834.938 495.219 834.938 498.438 Q834.938 501.531 834.352 503.922 Q833.766 506.312 832.656 507.961 Q831.547 509.609 829.969 510.461 Q828.391 511.312 826.422 511.312 Z M826.672 500.328 Q827.734 500.328 828.656 499.906 Q829.578 499.484 830.266 498.758 Q830.953 498.031 831.344 497.102 Q831.734 496.172 831.734 495.141 Q831.734 493.797 831.086 492.633 Q830.438 491.469 829.320 490.742 Q828.203 490.016 826.766 490.016 Q825.359 490.016 824.242 490.711 Q823.125 491.406 822.469 492.586 Q821.812 493.766 821.812 495.203 Q821.812 496.625 822.445 497.789 Q823.078 498.953 824.172 499.641 Q825.266 500.328 826.672 500.328 Z" fill="#2254d7"/>
<text x="482" y="574" font-size="24" fill="#243047">19,784 bytes / WOFF</text>
<text x="32" y="620" font-size="18" fill="#5d6878">Sample grid only. Lowercase letters, spaces and glyph dependencies are not shown.</text>
<text x="32" y="649" font-size="18" fill="#5d6878">Same output format; default subset options. Original font unchanged.</text>
</g>
</svg>
